# xmcd CD database file
#
# Track frame offsets:
#	150
#	17742
#	29722
#	47880
#	60432
#	74742
#	88870
#	104847
#	119022
#	135350
#	154657
#	171812
#	179560
#	199030
#	217560
#	232150
#	249732
#	264535
#
# Disc length: 3694 seconds
#
# Revision: 3
# Processed by: cddbd v1.5.2PL0 Copyright (c) Steve Scherf et al.
# Submitted via: CDex 1.70beta2
#
DISCID=100e6c12
DTITLE=Andre Kostenlanetz - Carnival Tropicana/Lure Of The Tropics
DYEAR=2000
DGENRE=
TTITLE0=Malaguena (Lecuona)
TTITLE1=La Cumparsita (Rodriguez)
TTITLE2=Mexicana Medley (Partichela-Férnandez-Serradel)
TTITLE3=Yours (Roig)
TTITLE4=Siboney (Lecuona)
TTITLE5=Caminito (Filiberto)
TTITLE6=Adios (Madriguera)
TTITLE7=No Taboleiro De Bahiana (Ary Barroso)
TTITLE8=The Moon Of Manakoora (Loesser-Newman)
TTITLE9=Lotus Land (Scott)
TTITLE10=Kashmiri Song (Hope-Woodford-Finden)
TTITLE11=Jamaican Rhumba (Benjamin)
TTITLE12=Flamingo (Grouya-Anderson)
TTITLE13=Poinciana (Nat Simon-Buddy Bernier)
TTITLE14=Andalucia (Lecuona)
TTITLE15=Song Of India (Rimsky-Korsakov)
TTITLE16=(Bonus Track) Sweet Leilani (Harry Owens)
TTITLE17=Frenesi (Bonus Track)
EXTD=Collectables Records\nCOL-CD-6631\nUPC 0 90431 66312 7\nCD is from two LP albums.\n YEAR: 2000
EXTT0=
EXTT1=
EXTT2=
EXTT3=
EXTT4=
EXTT5=
EXTT6=
EXTT7=
EXTT8=
EXTT9=
EXTT10=
EXTT11=
EXTT12=
EXTT13=
EXTT14=
EXTT15=
EXTT16=
EXTT17=
PLAYORDER=
